<!--?xml version="1.0" standalone="no"?-->

<svg version="1.0" xmlns="http://www.w3.org/2000/svg" width="174.000000pt" height="300.000000pt" viewBox="0 0 174.000000 300.000000" preserveAspectRatio="xMidYMid meet">
<g transform="translate(0.000000,300.000000) scale(0.100000,-0.100000)" fill="#3E3E3E" stroke="none">
<path class="node" id="node1" d="M1472 2983 c-20 -8 -42 -59 -42 -100 0 -21 -6 -56 -14 -77 -17 -49
-5 -88 35 -118 l29 -22 -21 -22 c-15 -16 -24 -47 -34 -116 -7 -51 -21 -151
-31 -223 -14 -100 -20 -123 -25 -100 -38 155 -55 209 -89 283 -51 108 -79 145
-136 178 -54 32 -122 36 -176 10 -34 -16 -39 -17 -60 -2 -15 11 -44 16 -89 16
-205 0 -374 -219 -389 -505 -2 -41 -21 15 -70 207 -33 128 -57 199 -70 213
l-21 22 35 72 34 71 -17 58 c-23 76 -37 99 -62 107 -39 13 -139 12 -162 -1
-12 -7 -32 -18 -44 -23 -12 -6 -27 -20 -34 -32 -15 -29 -6 -109 14 -121 14 -7
14 -12 0 -47 -19 -50 -11 -85 28 -120 25 -24 28 -30 16 -40 -23 -18 -26 -58
-11 -129 8 -36 25 -131 39 -210 33 -185 77 -354 110 -424 32 -68 105 -160 247
-311 l111 -119 -23 -89 c-36 -141 -16 -248 64 -337 43 -47 44 -65 11 -114 -14
-20 -25 -49 -25 -64 0 -21 -4 -25 -18 -20 -9 3 -62 21 -117 41 -123 43 -185
46 -236 11 -83 -57 -108 -213 -48 -297 26 -37 128 -96 256 -150 l103 -43 -48
-24 c-121 -61 -178 -177 -116 -239 24 -24 30 -25 99 -21 65 4 87 12 189 63 64
32 126 69 138 82 12 13 30 23 40 23 21 0 181 -64 215 -86 31 -19 49 -18 66 7
13 17 19 19 36 10 11 -7 75 -18 141 -26 171 -20 240 0 296 85 38 57 42 108 12
141 -14 14 -31 28 -38 31 -10 3 6 28 49 78 76 87 100 138 101 204 0 58 -28
102 -93 144 -39 24 -49 26 -145 25 -57 -1 -119 -4 -138 -7 -27 -6 -34 -4 -34
9 0 8 -11 38 -24 65 -13 28 -20 53 -15 56 5 3 24 33 42 67 29 56 32 70 31 147
0 64 -7 103 -25 157 l-25 73 21 42 c12 24 57 97 100 163 70 106 112 189 200
395 53 124 87 322 87 497 0 97 -3 118 -22 151 l-22 40 23 31 c14 19 26 54 31
89 4 31 10 74 14 94 8 46 -2 88 -19 88 -7 0 -31 8 -53 19 -37 18 -150 26 -182
14z m67 -12 c14 -9 30 -78 23 -99 -2 -6 -17 -12 -33 -12 -24 0 -29 4 -29 25 0
14 -4 25 -10 25 -5 0 -10 -13 -10 -30 0 -20 -5 -30 -15 -30 -20 0 -20 52 0 90
13 24 24 32 55 39 3 0 11 -3 19 -8z m85 -17 c8 -20 8 -88 0 -108 -9 -24 -47
-1 -39 23 3 10 1 37 -4 60 -8 39 -8 41 14 41 13 0 26 -7 29 -16z m56 -53 c0
-31 -20 -73 -38 -79 -9 -3 -10 3 -2 23 5 14 10 47 10 73 1 44 2 46 15 28 8
-11 15 -31 15 -45z m34 4 c7 -26 -17 -95 -32 -95 -5 0 -3 18 4 40 8 23 11 53
8 67 -5 17 -3 24 3 20 6 -4 14 -18 17 -32z m-1605 -14 c-6 -18 -9 -48 -6 -67
6 -35 -1 -42 -21 -22 -19 19 -14 73 9 102 26 34 32 29 18 -13z m68 22 c-8 -10
-21 -39 -27 -65 -13 -52 -30 -55 -30 -7 0 49 27 88 59 89 11 0 11 -3 -2 -17z
m68 11 c16 -6 45 -54 45 -74 0 -20 -38 -10 -45 13 -6 19 -8 19 -12 5 -3 -12
-14 -18 -34 -18 -16 0 -29 2 -29 5 0 14 31 64 42 68 7 3 14 6 15 6 1 1 9 -2
18 -5z m-193 -74 c-3 -30 1 -47 14 -62 19 -20 19 -20 -1 -17 -30 6 -47 50 -34
88 15 43 25 39 21 -9z m1522 -20 c51 -19 27 -50 -40 -50 -19 0 -34 -5 -34 -11
0 -6 19 -9 48 -7 46 3 47 2 59 -32 12 -34 12 -34 9 -5 -2 17 -5 36 -7 43 -6
20 24 36 54 28 21 -5 27 -12 27 -34 0 -33 -32 -87 -60 -102 -16 -9 -19 -15
-11 -24 12 -14 4 -73 -9 -81 -13 -8 -94 59 -98 79 -2 10 2 22 8 26 9 6 2 13
-21 25 -54 28 -69 45 -69 82 0 63 68 92 144 63z m-1299 -14 c44 -19 45 -38 5
-113 -16 -31 -30 -68 -30 -83 0 -27 -27 -57 -86 -98 -36 -24 -44 -21 -44 20 0
21 -11 39 -42 67 l-41 39 13 46 c13 49 40 72 90 76 41 4 42 1 21 -26 -22 -28
-31 -111 -11 -99 6 3 10 20 10 38 0 33 42 87 67 87 8 0 11 5 8 10 -3 6 -16 10
-28 10 -29 0 -51 15 -43 29 10 16 70 14 111 -3z m652 -433 c14 -10 40 -16 58
-15 43 4 88 -42 131 -135 53 -112 66 -186 62 -346 l-3 -139 -86 -83 c-98 -94
-134 -111 -207 -94 -55 12 -91 30 -169 85 -55 39 -63 50 -83 106 -25 71 -41
288 -22 288 25 0 87 82 134 175 57 114 73 135 102 135 18 0 19 2 6 11 -11 8
-5 9 25 5 37 -5 38 -4 21 9 -28 21 -1 19 31 -2z m236 -690 c-7 -19 -22 -33
-37 -33 -5 0 1 11 14 25 28 30 32 31 23 8z m-439 -92 c-10 -2 -24 5 -31 15
-22 30 -14 36 18 12 25 -19 28 -24 13 -27z m266 -66 c-32 -34 -54 -39 -89 -21
-46 24 -44 31 9 28 27 -2 57 1 67 7 31 18 37 12 13 -14z m81 -12 c12 -21 24
-48 26 -60 4 -27 -32 -124 -57 -153 -20 -23 -27 -50 -13 -50 4 0 20 12 36 28
17 15 27 21 23 15 -15 -26 14 -12 34 17 12 17 25 30 29 30 8 0 81 -159 81
-176 0 -7 -16 -26 -35 -43 -40 -35 -48 -60 -11 -36 l23 16 8 -92 c6 -77 12
-103 41 -158 37 -71 40 -86 22 -105 -14 -13 -126 -86 -133 -86 -2 0 -23 -13
-47 -29 -24 -15 -57 -31 -75 -34 -34 -7 -174 25 -313 70 -75 25 -85 31 -88 54
-2 14 10 51 27 82 17 32 33 74 36 95 4 20 13 54 21 75 8 20 14 53 14 72 0 26
3 33 15 29 9 -4 15 0 15 10 0 9 -7 16 -15 16 -8 0 -30 14 -49 31 -32 28 -34
33 -24 57 7 15 21 41 32 57 12 17 30 47 40 68 21 41 21 41 64 26 52 -18 57 -5
16 36 -21 21 -29 30 -16 20 29 -23 39 -13 19 19 -15 22 -15 28 0 71 l15 46 27
-24 c62 -58 103 -57 152 4 17 21 32 39 34 39 2 0 13 -17 26 -37z m338 -1255
c0 -24 -6 -61 -13 -83 -11 -40 -12 -40 -71 -46 -74 -8 -155 0 -161 15 -3 7 2
29 11 49 8 20 15 47 15 60 0 24 4 25 98 34 53 6 103 11 110 12 8 1 12 -13 11
-41z m-622 -73 c-5 -15 -139 -83 -179 -90 -33 -6 -38 -4 -52 24 -28 53 -21 87
21 114 l38 24 87 -31 c49 -17 86 -35 85 -41z"></path>
<path class="node" id="node2" d="M1030 2115 c-16 -20 -5 -32 14 -16 10 8 27 10 48 6 29 -7 31 -6 19 9
-17 20 -65 21 -81 1z"></path>
<path class="node" id="node3" d="M688 2099 c-29 -17 -21 -25 27 -24 48 0 62 18 23 29 -29 7 -30 7 -50
-5z"></path>
<path class="node" id="node4" d="M1052 2034 c-19 -13 -31 -44 -17 -44 11 0 61 26 67 34 18 27 -16 34
-50 10z"></path>
<path class="node" id="node5" d="M700 2001 c0 -5 6 -12 13 -14 10 -4 10 -6 0 -6 -7 -1 -13 -5 -13 -9
0 -6 58 -8 90 -2 3 0 -6 10 -19 20 -24 20 -71 27 -71 11z"></path>
<path class="node" id="node6" d="M951 1889 c-15 -12 -32 -18 -43 -15 -63 20 -64 20 -50 4 33 -40 131
-22 132 25 0 12 -14 7 -39 -14z"></path>
<path class="node" id="node7" d="M1055 1840 c-3 -5 -26 -10 -50 -10 -24 0 -46 -4 -50 -9 -3 -5 -45
-13 -94 -16 l-88 -7 22 -47 c41 -83 99 -119 164 -101 53 14 79 47 92 116 6 32
15 62 21 65 7 4 7 9 0 13 -6 3 -13 2 -17 -4z m-29 -29 c-9 -14 -90 -31 -147
-31 -68 0 -58 9 16 15 33 3 64 10 69 15 12 12 69 13 62 1z m0 -85 c-22 -52
-75 -74 -130 -55 -21 8 -46 25 -55 39 l-16 25 29 -23 c51 -40 153 -17 171 38
4 12 9 19 11 17 3 -3 -2 -21 -10 -41z m-36 14 c0 -15 -36 -30 -74 -30 -42 0
-56 17 -24 29 31 13 98 13 98 1z"></path>
<path class="node" id="node8" d="M980 1179 c-63 -17 -113 -45 -105 -59 3 -4 22 1 42 11 21 11 43 17
50 14 7 -2 13 -1 13 4 0 5 19 11 42 15 32 5 39 9 28 16 -18 11 -24 11 -70 -1z"></path>
<path class="node" id="node9" d="M800 830 c0 -12 55 -58 78 -65 12 -3 20 -10 17 -15 -3 -4 3 -6 13 -3
10 2 45 -2 77 -11 33 -8 61 -13 63 -11 10 10 -12 25 -46 30 -20 4 -44 9 -52
12 -8 3 -25 7 -36 9 -35 4 -86 34 -81 48 3 6 -3 12 -14 12 -11 0 -19 -3 -19
-6z"></path>
<path class="node" id="node10" d="M750 730 c0 -23 247 -79 277 -62 11 7 -4 11 -48 16 -81 9 -191 35
-203 47 -13 12 -26 12 -26 -1z"></path>
</g>
<g transform="translate(0.000000,300.000000) scale(0.100000,-0.100000)" fill="#FFFFFF" stroke="none">

<path class="node" id="node12" d="M1497 2973 c-37 -10 -67 -123 -32 -123 10 0 15 10 15 30 0 17 5 30
10 30 6 0 10 -11 10 -25 0 -21 5 -25 29 -25 35 0 40 11 30 63 -6 34 -23 59
-39 56 -3 -1 -13 -3 -23 -6z"></path>
<path class="node" id="node13" d="M1581 2929 c5 -23 7 -50 4 -60 -4 -11 1 -21 14 -28 23 -13 31 2 31
59 0 53 -8 70 -35 70 -22 0 -22 -2 -14 -41z"></path>
<path class="node" id="node14" d="M1650 2918 c0 -26 -5 -59 -10 -73 -13 -35 9 -30 27 6 17 32 16 71 -2
95 -13 18 -14 16 -15 -28z"></path>
<path class="node" id="node15" d="M1694 2917 c3 -14 0 -44 -8 -67 -17 -49 -1 -54 20 -5 15 36 11 80 -9
92 -6 4 -8 -3 -3 -20z"></path>
<path class="node" id="node16" d="M91 2904 c-23 -29 -28 -83 -9 -102 20 -20 27 -13 21 22 -3 19 0 49 6
67 14 42 8 47 -18 13z"></path>
<path class="node" id="node17" d="M154 2922 c-18 -12 -34 -49 -34 -81 0 -48 17 -45 30 7 6 26 19 55 27
65 13 14 13 17 2 17 -8 0 -19 -4 -25 -8z"></path>
<path class="node" id="node18" d="M212 2923 c-11 -4 -42 -54 -42 -68 0 -3 13 -5 29 -5 20 0 31 6 34 18
4 14 6 14 12 -5 7 -23 45 -33 45 -13 0 30 -46 87 -63 79 -1 0 -8 -3 -15 -6z"></path>
<path class="node" id="node19" d="M31 2859 c-13 -38 4 -82 34 -88 20 -3 20 -3 1 17 -13 15 -17 32 -14
62 4 48 -6 52 -21 9z"></path>
<path class="node" id="node20" d="M1450 2820 c-25 -25 -27 -81 -2 -102 9 -9 32 -23 51 -33 23 -12 30
-19 21 -25 -6 -4 -10 -16 -8 -26 4 -20 85 -87 98 -79 13 8 21 67 9 81 -8 9 -5
15 11 24 28 15 60 69 60 102 0 22 -6 29 -27 34 -30 8 -60 -8 -54 -28 2 -7 5
-26 7 -43 3 -29 3 -29 -9 5 -12 34 -13 35 -59 32 -29 -2 -48 1 -48 7 0 6 15
11 34 11 44 0 66 9 66 26 0 36 -117 47 -150 14z"></path>
<path class="node" id="node21" d="M164 2819 c-8 -14 14 -29 43 -29 12 0 25 -4 28 -10 3 -5 0 -10 -8
-10 -25 0 -67 -54 -67 -87 0 -18 -4 -35 -10 -38 -20 -12 -11 71 11 99 21 27
20 30 -21 26 -50 -4 -77 -27 -90 -76 l-13 -46 41 -39 c31 -28 42 -46 42 -67 0
-41 8 -44 44 -20 59 41 86 71 86 98 0 15 14 52 30 83 40 75 39 94 -5 113 -41
17 -101 19 -111 3z"></path>
<path class="node" id="node22" d="M896 2385 c17 -13 16 -14 -21 -9 -30 4 -36 3 -25 -5 13 -9 12 -11 -6
-11 -29 0 -45 -21 -102 -135 -47 -93 -109 -175 -134 -175 -19 0 -3 -217 22
-288 20 -56 28 -67 83 -106 78 -55 114 -73 169 -85 73 -17 109 0 207 94 l86
83 3 139 c4 160 -9 234 -62 346 -43 93 -88 139 -131 135 -18 -1 -44 5 -58 15
-32 21 -59 23 -31 2z m215 -271 c12 -15 10 -16 -19 -9 -21 4 -38 2 -48 -6 -19
-16 -30 -4 -14 16 16 20 64 19 81 -1z m-373 -10 c39 -11 25 -29 -23 -29 -48
-1 -56 7 -27 24 20 12 21 12 50 5z m366 -62 c7 -12 -6 -26 -37 -40 -35 -15
-37 -15 -37 2 0 27 61 58 74 38z m-333 -52 c13 -10 22 -20 19 -20 -32 -6 -90
-4 -90 2 0 4 6 8 13 9 10 0 10 2 0 6 -22 8 -14 23 11 23 13 0 34 -9 47 -20z
m219 -87 c-1 -47 -99 -65 -132 -25 -14 16 -13 16 50 -4 11 -3 28 3 43 15 25
21 39 26 39 14z m82 -72 c-6 -3 -15 -33 -21 -65 -13 -69 -39 -102 -92 -116
-65 -18 -123 18 -164 101 l-22 47 88 7 c49 3 91 11 94 16 4 5 26 9 50 9 24 0
47 5 50 10 4 6 11 7 17 4 7 -4 7 -9 0 -13z"></path>
<path class="node" id="node23" d="M964 1810 c-5 -5 -36 -12 -69 -15 -74 -6 -84 -15 -16 -15 57 0 138
17 147 31 7 12 -50 11 -62 -1z"></path>
<path class="node" id="node24" d="M1025 1750 c-18 -55 -120 -78 -171 -38 l-29 23 16 -25 c9 -14 34 -31
55 -39 55 -19 108 3 130 55 8 20 13 38 10 41 -2 2 -7 -5 -11 -17z"></path>
<path class="node" id="node25" d="M892 1739 c-32 -12 -18 -29 24 -29 38 0 74 15 74 30 0 12 -67 12 -98
-1z"></path>
<path class="node" id="node26" d="M1140 1685 c-22 -23 -18 -34 6 -17 10 6 27 42 20 42 -1 0 -13 -11
-26 -25z"></path>
<path class="node" id="node27" d="M680 1642 c0 -19 27 -44 44 -41 15 3 12 8 -13 27 -17 12 -31 19 -31
14z"></path>
<path class="node" id="node28" d="M977 1549 c-10 -6 -40 -9 -67 -7 -53 3 -55 -4 -9 -28 35 -18 57 -13
89 21 24 26 18 32 -13 14z"></path>
<path class="node" id="node29" d="M1011 1521 c-49 -61 -90 -62 -152 -4 l-27 24 -15 -46 c-15 -43 -15
-49 0 -71 20 -32 10 -42 -19 -19 -13 10 -5 1 16 -20 41 -41 36 -54 -16 -36
-43 15 -43 15 -64 -26 -10 -21 -28 -51 -40 -68 -11 -16 -25 -42 -32 -57 -10
-24 -8 -29 24 -57 19 -17 41 -31 49 -31 8 0 15 -7 15 -16 0 -10 -6 -14 -15
-10 -12 4 -15 -3 -15 -29 0 -19 -6 -52 -14 -72 -8 -21 -17 -55 -21 -75 -3 -21
-19 -63 -36 -95 -17 -31 -29 -68 -27 -82 3 -23 13 -29 88 -54 139 -45 279 -77
313 -70 18 3 51 19 75 34 24 16 45 29 47 29 7 0 119 73 133 86 18 19 15 34
-22 105 -29 55 -35 81 -41 158 l-8 92 -23 -16 c-37 -24 -29 1 11 36 19 17 35
36 35 43 0 17 -73 176 -81 176 -4 0 -17 -13 -29 -30 -20 -29 -49 -43 -34 -17
4 6 -6 0 -23 -15 -16 -16 -32 -28 -36 -28 -14 0 -7 27 13 50 25 29 61 126 57
153 -3 20 -45 97 -52 97 -2 0 -17 -18 -34 -39z m39 -341 c11 -7 4 -11 -28 -16
-23 -4 -42 -10 -42 -15 0 -5 -6 -6 -13 -4 -7 3 -29 -3 -50 -14 -20 -10 -39
-15 -42 -11 -8 14 42 42 105 59 46 12 52 12 70 1z m-217 -356 c-5 -14 46 -44
81 -48 11 -2 28 -6 36 -9 8 -3 32 -8 52 -12 34 -5 56 -20 46 -30 -2 -2 -30 3
-63 11 -32 9 -67 13 -77 11 -10 -3 -16 -1 -13 3 3 5 -5 12 -17 15 -23 7 -78
53 -78 65 0 3 8 6 19 6 11 0 17 -6 14 -12z m-57 -93 c12 -12 122 -38 203 -47
44 -5 59 -9 48 -16 -30 -17 -277 39 -277 62 0 13 13 13 26 1z"></path>
<path class="node" id="node30" d="M1288 297 c-94 -9 -98 -10 -98 -34 0 -13 -7 -40 -15 -60 -9 -20 -14
-42 -11 -49 6 -15 87 -23 161 -15 59 6 60 6 71 46 17 55 18 125 2 124 -7 -1
-57 -6 -110 -12z"></path>
<path class="node" id="node31" d="M577 243 c-42 -27 -49 -61 -21 -114 14 -28 19 -30 52 -24 40 7 174
75 179 90 1 6 -36 24 -85 41 l-87 31 -38 -24z"></path>
</g>
</svg>